<?xml version="1.0" encoding="UTF-8"?>
<svg id="Capa_2" data-name="Capa 2" xmlns="http://www.w3.org/2000/svg" viewBox="0 0 778.69 474.1">
  <defs>
    <style>
      .cls-1 {
        fill: #bac94a;
      }

      .cls-1, .cls-2, .cls-3, .cls-4 {
        stroke-width: 0px;
      }

      .cls-2 {
        fill-rule: evenodd;
      }

      .cls-2, .cls-4 {
        fill: #9ad1c4;
      }

      .cls-3 {
        fill: #090b18;
      }
    </style>
  </defs>
  <g id="Capa_6" data-name="Capa 6">
    <g>
      <g>
        <path class="cls-1" d="M592.16,308.25c-8.86,14.36-53.07,36.16-106.3,18.61-22.15-7.27-64.73-26.94-90.39-31.9v-1.77c31.99.18,59.03-17.57,59.73-58.67.61-35.94-23.62-63.44-56.54-64.16-34.03-.9-59.55,24.78-59.55,59.91,0,24.28,13.47,43.6,31.9,47.68,14.36,3.19,32.26-2.84,37.43-19.13l1.6.53c-4.28,15.94-17.75,27.46-40.44,24.27-28.71-4.08-44.13-26.94-44.13-53,0-38.39,31.22-66.5,72.85-65.58,40.81.88,71.05,29.52,70.54,66.82-.43,39.54-30.62,59.86-56.31,63.45,23.82,4.61,56.96,15.95,74.74,20.74,34.12,9.39,83.62,11.52,104.21-8.68l.68.88Z"/>
        <path class="cls-1" d="M589.24,189.91c.01-35.58,20.2-53.16,50.46-51.92v1.77c-25.3,0-42.18,16.78-42.18,49.92v58.96c0,27.79-19.11,46.32-47.78,46.32s-49.16-18.41-49.16-46.01v-69.99c-.1-5.1-4.25-8.78-9.37-8.78h-2.89v-1.77h36v1.77h-2.89c-5.03,0-9.13,3.55-9.34,8.51v67.66c0,25.82,15.05,43.04,37.63,43.04s39.48-16.3,39.51-40.75v-58.72Z"/>
        <path class="cls-1" d="M778.69,328.1c-27.93,10.28-56.16-6.74-74.16-59.83l-6.87-20.28h-48.62l-12.28,31.61c-2.59,7.09,2.16,11.13,6.74,11.13h1.56v1.76h-35.68v-1.77h1.59c5.17,0,11.41-3.01,15.08-10.21l43.89-105.38c-7.69-11.01-18.97-17.56-37.32-10.92l-.5-1.79c41.53-17.58,53.97,16.35,62.78,41.3l21.63,61.26c10,28.4,29.79,68.28,62.01,61.36l.15,1.77ZM695.87,242.67l-14-41.34c-2.08-6.15-4.43-12.65-7.42-18.58l-23.33,59.92h44.75Z"/>
      </g>
      <g>
        <path class="cls-2" d="M264.15,197.02c-4.44,0-7.33,2.89-7.33,7.64v106.27h-52.4v-43.08c0-3.82-2.96-7.64-6.59-7.64h-37.85c-4.38,0-8.01,3.82-8.01,7.64v43.08h-51.72v-102.45c0-4.75-3.64-7.64-7.28-7.64-4.38,0-7.27,2.89-7.27,7.64v111.08c0,3.83,2.9,7.71,7.27,7.71h67.01c3.64,0,6.53-3.88,6.53-7.71v-44.01h23.3v44.01c0,3.83,3.7,7.71,8.01,7.71h66.32c3.64,0,7.28-3.88,7.28-7.71v-114.9c0-4.75-3.64-7.64-7.28-7.64h0ZM304.16,202.75h0c-48.08-51.72-77.91-83.28-120.88-128.28-1.42-1.91-2.9-2.83-4.38-2.83-2.16,0-4.38.93-5.8,2.83l-120.2,127.35c-1.42,1.91-2.16,3.82-2.16,5.73s.74,3.82,2.16,4.74c2.96,3.83,7.27,3.83,10.23,0l115.76-121.55,115.08,123.47c.74.98,2.9,1.91,5.12,1.91s3.64-.93,5.05-1.91c2.96-2.84,2.96-8.57,0-11.47h0Z"/>
        <path class="cls-4" d="M16.72,167.86c-11.78-11.51-13.72-30.32-8.66-45.36s17.4-29.62,31.09-38.42,28.54-8.93,43.91-10.57c16.22-1.74,34.62-10.12,45.24-22.8,13.6-16.24,1.99-33.48-10.51-45.93-1.22-1.21-2.46-2.41-3.72-3.58-.25-.24-1.97-1.85-1.01-.9,12.35,12.31,23.04,29.37,9.79,45.19-10.6,12.66-29.03,21.1-45.24,22.8s-31,1.99-44.64,11.06c-13.54,9.01-25.62,23.06-30.61,38.68s-1.87,34.13,10.47,46.18c1.27,1.24,2.53,2.5,3.85,3.69.81.73,1.07.98.04-.04h0Z"/>
        <path class="cls-4" d="M39.9,187.73c-1.63-1.6-3.64-3.4-4.71-5.44,1.74,3.31-.37-1.86-.71-2.82-1.42-3.95-2.24-8.11-2.52-12.29-.57-8.38,1.11-16.7,4.53-24.34,7.01-15.69,21.13-30.53,36.92-37.5s31.96-4.1,47.57-8.7c14.87-4.38,35.77-15.03,39.61-31.6,3.47-14.96-10.25-31.07-20.03-40.81,1.73,1.72,2.28,4.64,4.02,6.38,6.52,6.5,12.39,12.98,12.54,22.7.13,8.65-4.96,15.9-11.25,21.37-13.28,11.54-29.8,17.13-47.07,18.39-7.64.56-15.47,1.39-22.86,3.52-8.92,2.57-16.61,7.57-23.49,13.7-12.69,11.32-23.28,26.4-24.51,43.82-1.04,14.68,5.49,29.77,15.98,40.01-1.74-1.7-2.27-4.66-4.02-6.38h0Z"/>
      </g>
      <g>
        <g>
          <path class="cls-3" d="M71.84,413.36v-52.45h20.43c6.78,0,12.12,1.61,16.01,4.83s5.84,7.71,5.84,13.45c0,3.8-.87,7.06-2.62,9.78-1.75,2.72-4.24,4.81-7.48,6.26-3.24,1.45-7.16,2.17-11.75,2.17h-16.31l3.37-3.45v19.41h-7.48ZM79.32,394.71l-3.37-3.67h16.09c4.79,0,8.42-1.04,10.89-3.11,2.47-2.07,3.7-4.98,3.7-8.73s-1.23-6.64-3.7-8.69c-2.47-2.05-6.1-3.07-10.89-3.07h-16.09l3.37-3.75v31.02ZM106.86,413.36l-13.32-19.03h8.01l13.47,19.03h-8.16Z"/>
          <path class="cls-3" d="M141.2,413.36v-52.45h36.96v6.52h-29.48v39.41h30.53v6.52h-38.01ZM148.01,389.91v-6.37h26.94v6.37h-26.94Z"/>
          <path class="cls-3" d="M206.29,413.36v-52.45h6.14l23.49,39.64h-3.29l23.19-39.64h6.14l.07,52.45h-7.18l-.07-41.14h1.72l-20.65,34.77h-3.44l-20.8-34.77h1.87v41.14h-7.18Z"/>
          <path class="cls-3" d="M316.36,413.96c-3.99,0-7.69-.67-11.11-2.02-3.42-1.35-6.37-3.23-8.87-5.66-2.5-2.42-4.44-5.26-5.84-8.5-1.4-3.25-2.1-6.79-2.1-10.64s.7-7.39,2.1-10.64c1.4-3.25,3.34-6.08,5.84-8.5,2.49-2.42,5.44-4.31,8.83-5.66,3.39-1.35,7.11-2.02,11.15-2.02s7.68.66,11.07,1.99c3.39,1.32,6.33,3.2,8.83,5.62,2.49,2.42,4.43,5.27,5.8,8.54,1.37,3.27,2.06,6.83,2.06,10.68s-.69,7.47-2.06,10.72c-1.37,3.25-3.31,6.08-5.8,8.5-2.49,2.42-5.44,4.3-8.83,5.62-3.39,1.32-7.08,1.98-11.07,1.98ZM316.28,407.3c2.94,0,5.65-.5,8.12-1.5,2.47-1,4.61-2.41,6.43-4.23,1.82-1.82,3.24-3.96,4.26-6.41,1.02-2.45,1.53-5.12,1.53-8.02s-.51-5.56-1.53-7.98c-1.02-2.42-2.44-4.56-4.26-6.41-1.82-1.85-3.97-3.27-6.43-4.27-2.47-1-5.18-1.5-8.12-1.5s-5.57.5-8.04,1.5c-2.47,1-4.63,2.42-6.47,4.27-1.85,1.85-3.28,3.98-4.3,6.41-1.02,2.42-1.53,5.08-1.53,7.98s.51,5.57,1.53,8.02c1.02,2.45,2.46,4.58,4.3,6.41,1.84,1.82,4,3.24,6.47,4.23,2.47,1,5.15,1.5,8.04,1.5Z"/>
          <path class="cls-3" d="M370.53,413.36v-52.45h22.07c5.59,0,10.51,1.1,14.78,3.3,4.27,2.2,7.58,5.27,9.95,9.22,2.37,3.95,3.55,8.52,3.55,13.71s-1.19,9.77-3.55,13.71c-2.37,3.95-5.69,7.02-9.95,9.22-4.26,2.2-9.19,3.3-14.78,3.3h-22.07ZM378.01,406.85h14.14c4.34,0,8.09-.82,11.26-2.47,3.17-1.65,5.62-3.96,7.37-6.93,1.75-2.97,2.62-6.41,2.62-10.3s-.87-7.39-2.62-10.34c-1.75-2.95-4.2-5.24-7.37-6.89-3.17-1.65-6.92-2.47-11.26-2.47h-14.14v39.41Z"/>
          <path class="cls-3" d="M447.29,413.36v-52.45h36.96v6.52h-29.48v39.41h30.53v6.52h-38.01ZM454.1,389.91v-6.37h26.94v6.37h-26.94Z"/>
          <path class="cls-3" d="M512.39,413.36v-52.45h7.48v45.93h28.36v6.52h-35.84Z"/>
          <path class="cls-3" d="M571.79,413.36v-52.45h7.48v52.45h-7.48Z"/>
          <path class="cls-3" d="M609.95,413.36v-52.45h6.14l34.64,43.09h-3.22v-43.09h7.48v52.45h-6.14l-34.64-43.09h3.22v43.09h-7.48Z"/>
          <path class="cls-3" d="M709.32,413.96c-4.04,0-7.76-.66-11.15-1.98-3.39-1.32-6.33-3.2-8.83-5.62-2.49-2.42-4.44-5.26-5.84-8.5-1.4-3.25-2.1-6.82-2.1-10.72s.7-7.47,2.1-10.72c1.4-3.25,3.35-6.08,5.87-8.5,2.52-2.42,5.47-4.3,8.87-5.62,3.39-1.32,7.13-1.99,11.22-1.99s7.93.67,11.37,2.02,6.36,3.37,8.75,6.07l-4.64,4.65c-2.14-2.1-4.48-3.63-7-4.61-2.52-.97-5.25-1.46-8.19-1.46s-5.77.5-8.34,1.5c-2.57,1-4.79,2.4-6.66,4.2-1.87,1.8-3.32,3.93-4.34,6.41-1.02,2.47-1.53,5.16-1.53,8.06s.51,5.51,1.53,7.98c1.02,2.47,2.47,4.62,4.34,6.44,1.87,1.82,4.08,3.24,6.62,4.23,2.54,1,5.31,1.5,8.31,1.5,2.79,0,5.47-.44,8.04-1.31,2.57-.87,4.95-2.34,7.15-4.38l4.27,5.7c-2.59,2.2-5.62,3.86-9.09,4.98-3.47,1.12-7.05,1.69-10.74,1.69ZM729.14,407.3l-7.18-.97v-19.48h7.18v20.46Z"/>
        </g>
        <g>
          <path class="cls-3" d="M628.53,473.73v-32.77h4.68v28.7h17.72v4.07h-22.39Z"/>
          <path class="cls-3" d="M665.65,473.73v-32.77h4.68v28.7h17.72v4.07h-22.39Z"/>
          <path class="cls-3" d="M716.8,474.1c-2.49,0-4.79-.41-6.9-1.24-2.1-.83-3.93-2-5.47-3.51s-2.75-3.29-3.62-5.31-1.31-4.26-1.31-6.7.44-4.67,1.31-6.7c.87-2.03,2.09-3.8,3.65-5.31,1.56-1.51,3.39-2.68,5.49-3.51,2.1-.83,4.4-1.24,6.9-1.24s4.85.43,6.99,1.29c2.14.86,3.95,2.13,5.45,3.82l-3.04,2.95c-1.25-1.31-2.65-2.29-4.21-2.93-1.56-.64-3.23-.96-5-.96s-3.55.31-5.12.94c-1.57.62-2.94,1.5-4.09,2.62-1.15,1.12-2.05,2.46-2.69,4-.64,1.55-.96,3.22-.96,5.03s.32,3.49.96,5.03c.64,1.55,1.53,2.88,2.69,4,1.15,1.12,2.52,2,4.09,2.62,1.57.62,3.28.94,5.12.94s3.44-.32,5-.96c1.56-.64,2.96-1.63,4.21-2.97l3.04,2.95c-1.5,1.69-3.31,2.97-5.45,3.84s-4.48,1.31-7.04,1.31Z"/>
        </g>
      </g>
    </g>
  </g>
</svg>