<?xml version="1.0" encoding="UTF-8"?>
<svg id="Capa_2" data-name="Capa 2" xmlns="http://www.w3.org/2000/svg" viewBox="0 0 778.22 474.85">
  <defs>
    <style>
      .cls-1, .cls-2 {
        fill: #000;
        stroke-width: 0px;
      }

      .cls-2 {
        fill-rule: evenodd;
      }
    </style>
  </defs>
  <g id="Capa_6" data-name="Capa 6">
    <g>
      <g>
        <path class="cls-1" d="M591.64,308.95c-8.86,14.36-53.09,36.17-106.33,18.62-22.16-7.27-64.75-26.95-90.42-31.91v-1.77c31.99.18,59.04-17.58,59.75-58.69.61-35.95-23.62-63.46-56.56-64.18-34.04-.9-59.57,24.79-59.57,59.93,0,24.29,13.47,43.62,31.91,47.69,14.36,3.19,32.27-2.84,37.44-19.14l1.6.53c-4.29,15.94-17.76,27.47-40.45,24.28-28.72-4.08-44.15-26.95-44.15-53.01,0-38.4,31.23-66.52,72.87-65.6,40.83.88,71.07,29.53,70.57,66.84-.43,39.55-30.63,59.88-56.33,63.47,23.83,4.61,56.98,15.96,74.77,20.74,34.13,9.4,83.65,11.52,104.24-8.69l.68.88Z"/>
        <path class="cls-1" d="M588.72,190.57c.01-35.59,20.2-53.18,50.47-51.94v1.77c-25.31,0-42.19,16.78-42.19,49.93v58.98c0,27.8-19.12,46.34-47.79,46.34s-49.17-18.41-49.17-46.03v-70.01c-.1-5.1-4.25-8.78-9.37-8.78h-2.89v-1.77h36.01v1.77h-2.89c-5.03,0-9.13,3.55-9.35,8.51v67.68c0,25.83,15.06,43.05,37.65,43.05s39.49-16.3,39.52-40.76v-58.74Z"/>
        <path class="cls-1" d="M778.22,328.81c-27.94,10.28-56.18-6.74-74.18-59.85l-6.87-20.29h-48.63l-12.28,31.62c-2.59,7.1,2.16,11.13,6.74,11.13h1.56v1.76h-35.69v-1.77h1.6c5.17,0,11.41-3.01,15.08-10.21l43.9-105.41c-7.69-11.01-18.97-17.56-37.34-10.92l-.5-1.79c41.54-17.59,53.99,16.36,62.8,41.31l21.63,61.28c10,28.4,29.8,68.3,62.03,61.38l.15,1.77ZM695.37,243.35l-14-41.36c-2.08-6.15-4.43-12.66-7.42-18.58l-23.34,59.94h44.76Z"/>
      </g>
      <path class="cls-2" d="M263.53,197.69c-4.44,0-7.34,2.9-7.34,7.64v106.3h-52.41v-43.1c0-3.82-2.96-7.65-6.6-7.65h-37.86c-4.38,0-8.02,3.82-8.02,7.65v43.1h-51.73v-102.48c0-4.75-3.64-7.64-7.28-7.64-4.38,0-7.27,2.9-7.27,7.64v111.11c0,3.83,2.9,7.71,7.27,7.71h67.02c3.64,0,6.54-3.89,6.54-7.71v-44.02h23.31v44.02c0,3.83,3.7,7.71,8.02,7.71h66.34c3.64,0,7.28-3.89,7.28-7.71v-114.93c0-4.75-3.64-7.64-7.28-7.64h0ZM303.55,203.43h0c-48.09-51.73-77.94-83.3-120.91-128.32-1.42-1.91-2.9-2.83-4.38-2.83-2.16,0-4.38.93-5.8,2.83l-120.23,127.39c-1.42,1.91-2.16,3.82-2.16,5.74s.74,3.82,2.16,4.75c2.96,3.83,7.27,3.83,10.24,0l115.8-121.59,115.12,123.5c.74.98,2.9,1.91,5.12,1.91s3.64-.93,5.06-1.91c2.96-2.84,2.96-8.57,0-11.47h0Z"/>
      <path class="cls-1" d="M16.15,163.55c-11.97-11.69-14.67-29.83-9.69-45.41,4.92-15.4,18.88-30.29,35.84-37.43,14.99-6.31,31.45-3.81,46.76-8.36,15.16-4.5,29.37-13.33,38.14-26.62,4.16-6.3,7.25-12.66,5.83-20.47-1.82-10.08-9.2-18.28-16.21-25.27.31.31-4.55,5.9-4.16,6.29,6.37,6.35,12.82,13.49,15.48,22.28,1.12,3.7,1.42,7.62.67,11.43-.4,2.02-1.34,3.69-1.9,5.62-.79,2.72,3.58-3.96.47-.59-1.02,1.1-1.93,2.29-3,3.34-12.57,12.38-30.4,19.24-47.77,20.37-7.74.5-15.62,1.3-23.13,3.27-9.17,2.4-17.13,7.33-24.2,13.53-10,8.77-18.82,20.17-24.42,32.3-7.84,16.99-6.78,38.42,7.11,52-.3-.29,4.54-5.92,4.16-6.29h0Z"/>
      <path class="cls-1" d="M39.21,188.39c-1.63-1.6-3.64-3.41-4.71-5.44,1.74,3.31-.37-1.86-.71-2.82-1.42-3.96-2.24-8.11-2.52-12.3-.57-8.38,1.11-16.7,4.53-24.35,7.02-15.7,21.13-30.53,36.93-37.51s31.97-4.1,47.58-8.7c14.87-4.38,35.78-15.04,39.63-31.61,3.47-14.96-10.25-31.08-20.03-40.83,1.73,1.72,2.28,4.64,4.02,6.38,6.52,6.5,12.4,12.99,12.54,22.7.13,8.65-4.96,15.9-11.25,21.37-13.28,11.54-29.81,17.13-47.09,18.4-7.65.56-15.47,1.39-22.86,3.52-8.92,2.57-16.62,7.57-23.49,13.7-12.69,11.32-23.29,26.41-24.52,43.83-1.04,14.68,5.5,29.77,15.99,40.03-1.74-1.7-2.27-4.66-4.02-6.38h0Z"/>
      <g>
        <g>
          <path class="cls-1" d="M71.16,414.1v-52.47h20.43c6.78,0,12.12,1.61,16.02,4.83,3.89,3.22,5.84,7.71,5.84,13.45,0,3.8-.87,7.06-2.62,9.78-1.75,2.72-4.24,4.81-7.48,6.26-3.24,1.45-7.16,2.17-11.75,2.17h-16.32l3.37-3.45v19.41h-7.48ZM78.64,395.43l-3.37-3.67h16.09c4.79,0,8.42-1.04,10.89-3.11,2.47-2.07,3.7-4.98,3.7-8.73s-1.23-6.65-3.7-8.7c-2.47-2.05-6.1-3.07-10.89-3.07h-16.09l3.37-3.75v31.03ZM106.19,414.1l-13.32-19.04h8.01l13.47,19.04h-8.16Z"/>
          <path class="cls-1" d="M140.54,414.1v-52.47h36.97v6.52h-29.49v39.43h30.54v6.52h-38.02ZM147.35,390.64v-6.37h26.94v6.37h-26.94Z"/>
          <path class="cls-1" d="M205.65,414.1v-52.47h6.14l23.5,39.65h-3.29l23.2-39.65h6.14l.07,52.47h-7.18l-.07-41.15h1.72l-20.66,34.78h-3.44l-20.81-34.78h1.87v41.15h-7.19Z"/>
          <path class="cls-1" d="M315.75,414.7c-3.99,0-7.7-.67-11.11-2.02-3.42-1.35-6.37-3.24-8.87-5.66-2.5-2.42-4.44-5.26-5.84-8.51-1.4-3.25-2.1-6.79-2.1-10.64s.7-7.39,2.1-10.64c1.4-3.25,3.34-6.08,5.84-8.51,2.49-2.42,5.44-4.31,8.83-5.66,3.39-1.35,7.11-2.02,11.15-2.02s7.68.66,11.08,1.99c3.39,1.32,6.34,3.2,8.83,5.62,2.49,2.42,4.43,5.27,5.8,8.54,1.37,3.27,2.06,6.83,2.06,10.68s-.69,7.47-2.06,10.72c-1.37,3.25-3.31,6.08-5.8,8.51-2.5,2.42-5.44,4.3-8.83,5.62-3.39,1.32-7.09,1.99-11.08,1.99ZM315.67,408.03c2.94,0,5.65-.5,8.12-1.5,2.47-1,4.61-2.41,6.44-4.23,1.82-1.82,3.24-3.96,4.27-6.41,1.02-2.45,1.53-5.12,1.53-8.02s-.51-5.56-1.53-7.98c-1.02-2.42-2.45-4.56-4.27-6.41-1.82-1.85-3.97-3.27-6.44-4.27-2.47-1-5.18-1.5-8.12-1.5s-5.58.5-8.05,1.5c-2.47,1-4.63,2.42-6.47,4.27-1.85,1.85-3.28,3.99-4.3,6.41-1.02,2.42-1.53,5.09-1.53,7.98s.51,5.57,1.53,8.02c1.02,2.45,2.46,4.59,4.3,6.41,1.85,1.83,4,3.24,6.47,4.23,2.47,1,5.15,1.5,8.05,1.5Z"/>
          <path class="cls-1" d="M369.93,414.1v-52.47h22.08c5.59,0,10.52,1.1,14.78,3.3,4.27,2.2,7.58,5.27,9.95,9.22,2.37,3.95,3.55,8.52,3.55,13.72s-1.19,9.77-3.55,13.72c-2.37,3.95-5.69,7.02-9.95,9.22-4.27,2.2-9.19,3.3-14.78,3.3h-22.08ZM377.42,407.58h14.15c4.34,0,8.09-.82,11.26-2.47,3.17-1.65,5.63-3.96,7.37-6.93,1.75-2.97,2.62-6.41,2.62-10.31s-.87-7.39-2.62-10.34c-1.75-2.95-4.2-5.25-7.37-6.9-3.17-1.65-6.92-2.47-11.26-2.47h-14.15v39.43Z"/>
          <path class="cls-1" d="M446.72,414.1v-52.47h36.97v6.52h-29.49v39.43h30.54v6.52h-38.02ZM453.53,390.64v-6.37h26.94v6.37h-26.94Z"/>
          <path class="cls-1" d="M511.84,414.1v-52.47h7.48v45.95h28.37v6.52h-35.85Z"/>
          <path class="cls-1" d="M571.26,414.1v-52.47h7.48v52.47h-7.48Z"/>
          <path class="cls-1" d="M609.43,414.1v-52.47h6.14l34.65,43.1h-3.22v-43.1h7.48v52.47h-6.14l-34.65-43.1h3.22v43.1h-7.48Z"/>
          <path class="cls-1" d="M708.82,414.7c-4.04,0-7.76-.66-11.15-1.99-3.39-1.32-6.34-3.2-8.83-5.62-2.5-2.42-4.44-5.26-5.84-8.51-1.4-3.25-2.1-6.82-2.1-10.72s.7-7.47,2.1-10.72c1.4-3.25,3.36-6.08,5.88-8.51,2.52-2.42,5.47-4.3,8.87-5.62,3.39-1.32,7.13-1.99,11.23-1.99s7.93.68,11.38,2.02c3.44,1.35,6.36,3.37,8.76,6.07l-4.64,4.65c-2.15-2.1-4.48-3.63-7-4.61-2.52-.97-5.25-1.46-8.2-1.46s-5.78.5-8.34,1.5c-2.57,1-4.79,2.4-6.66,4.2-1.87,1.8-3.32,3.94-4.34,6.41-1.02,2.47-1.53,5.16-1.53,8.06s.51,5.51,1.53,7.98c1.02,2.47,2.47,4.62,4.34,6.45,1.87,1.83,4.08,3.24,6.62,4.23,2.54,1,5.31,1.5,8.31,1.5,2.79,0,5.48-.44,8.05-1.31,2.57-.87,4.95-2.34,7.15-4.39l4.27,5.7c-2.59,2.2-5.63,3.86-9.09,4.98-3.47,1.12-7.05,1.69-10.74,1.69ZM728.66,408.03l-7.18-.98v-19.49h7.18v20.46Z"/>
        </g>
        <g>
          <path class="cls-1" d="M628.02,474.48v-32.78h4.68v28.71h17.72v4.07h-22.4Z"/>
          <path class="cls-1" d="M665.15,474.48v-32.78h4.68v28.71h17.72v4.07h-22.4Z"/>
          <path class="cls-1" d="M716.31,474.85c-2.49,0-4.79-.41-6.9-1.24-2.1-.83-3.93-2-5.47-3.51-1.54-1.51-2.75-3.29-3.62-5.32-.87-2.03-1.31-4.26-1.31-6.7s.44-4.67,1.31-6.7c.87-2.03,2.09-3.8,3.65-5.32,1.56-1.51,3.39-2.68,5.5-3.51,2.1-.83,4.4-1.24,6.9-1.24s4.86.43,6.99,1.29c2.14.86,3.95,2.13,5.45,3.82l-3.04,2.95c-1.25-1.31-2.65-2.29-4.21-2.93-1.56-.64-3.23-.96-5-.96s-3.55.31-5.12.94c-1.58.62-2.94,1.5-4.09,2.62-1.15,1.12-2.05,2.46-2.69,4-.64,1.55-.96,3.22-.96,5.04s.32,3.49.96,5.03c.64,1.55,1.54,2.88,2.69,4,1.15,1.12,2.52,2,4.09,2.62,1.57.62,3.28.94,5.12.94s3.44-.32,5-.96c1.56-.64,2.96-1.63,4.21-2.97l3.04,2.95c-1.5,1.69-3.31,2.97-5.45,3.84-2.14.87-4.48,1.31-7.04,1.31Z"/>
        </g>
      </g>
    </g>
  </g>
</svg>